<?xml version="1.0" encoding="UTF-8" standalone="no"?>
<!-- Created with Inkscape (http://www.inkscape.org/) -->

<svg
   xmlns:dc="http://purl.org/dc/elements/1.1/"
   xmlns:cc="http://creativecommons.org/ns#"
   xmlns:rdf="http://www.w3.org/1999/02/22-rdf-syntax-ns#"
   xmlns:svg="http://www.w3.org/2000/svg"
   xmlns="http://www.w3.org/2000/svg"
   version="1.1"
   width="42.5"
   height="30.001249"
   id="svg3311">
  <defs
     id="defs3313">
    <clipPath
       id="clipPath20">
      <path
         d="m 0,1743.157 320,0 L 320,0 0,0 0,1743.157 z"
         id="path22" />
    </clipPath>
    <clipPath
       id="clipPath36">
      <path
         d="m 0,1183.69 320,0 0,-1 -320,0 0,1 z"
         id="path38" />
    </clipPath>
  </defs>
  <metadata
     id="metadata3316">
    <rdf:RDF>
      <cc:Work
         rdf:about="">
        <dc:format>image/svg+xml</dc:format>
        <dc:type
           rdf:resource="http://purl.org/dc/dcmitype/StillImage" />
        <dc:title></dc:title>
      </cc:Work>
    </rdf:RDF>
  </metadata>
  <g
     transform="translate(-457.98804,-466.0676)"
     id="layer1">
    <path
       d="m 457.98804,468.56885 42.5,0 0,-2.50125 -42.5,0 0,2.50125 z"
       id="path48"
       style="fill:#000000;fill-opacity:1;fill-rule:nonzero;stroke:none" />
    <path
       d="m 457.98804,482.31885 42.5,0 0,-2.5 -42.5,0 0,2.5 z"
       id="path50"
       style="fill:#000000;fill-opacity:1;fill-rule:nonzero;stroke:none" />
    <path
       d="m 457.98804,496.06885 42.5,0 0,-2.5 -42.5,0 0,2.5 z"
       id="path52"
       style="fill:#000000;fill-opacity:1;fill-rule:nonzero;stroke:none" />
    <path
       d="m 457.98804,468.56885 42.5,0 0,-2.50125 -42.5,0 0,2.50125 z"
       id="path54"
       style="fill:#000000;fill-opacity:1;fill-rule:nonzero;stroke:none" />
    <path
       d="m 457.98804,482.31885 42.5,0 0,-2.5 -42.5,0 0,2.5 z"
       id="path56"
       style="fill:#000000;fill-opacity:1;fill-rule:nonzero;stroke:none" />
    <path
       d="m 457.98804,496.06885 42.5,0 0,-2.5 -42.5,0 0,2.5 z"
       id="path58"
       style="fill:#000000;fill-opacity:1;fill-rule:nonzero;stroke:none" />
  </g>
</svg>
